<svg xmlns="http://www.w3.org/2000/svg" version="1.1" xmlns:xlink="http://www.w3.org/1999/xlink" xmlns:svgjs="http://svgjs.com/svgjs" width="512" height="512" x="0" y="0" viewBox="0 0 24 24" style="enable-background:new 0 0 512 512" xml:space="preserve" class=""><g><switch><g><g fill="#02BC7D"><path d="M16.1 6.2c-.4-.3-1.1-.3-1.4.2l-7 9-3.4-4.2c-.3-.4-1-.5-1.4-.2s-.5 1-.2 1.4l4.2 5.2c.2.3.5.4.8.4s.6-.1.8-.4l7.8-10c.4-.4.3-1-.2-1.4zM21.1 6.2c-.4-.3-1.1-.3-1.4.2l-7 9-.6-.8-1.3 1.6 1.1 1.4c.2.2.5.4.8.4s.6-.1.8-.4l7.8-10c.4-.4.3-1.1-.2-1.4z" fill="#02BC7D" data-original="#02bc7d"></path><path d="m8.2 13.1 1.3-1.6-.2-.2c-.3-.5-1-.6-1.4-.3-.4.3-.5 1-.2 1.4z" fill="#02BC7D" data-original="#02bc7d"></path></g></g></switch></g></svg>