<svg xmlns="http://www.w3.org/2000/svg" version="1.1" xmlns:xlink="http://www.w3.org/1999/xlink" xmlns:svgjs="http://svgjs.com/svgjs" width="512" height="512" x="0" y="0" viewBox="0 0 512 512" style="enable-background:new 0 0 512 512" xml:space="preserve" class=""><g><path d="M478.4 153.401c-2.401-2.701-5.7-4.501-9.3-5.101l-44.101-5.999L380.9 136H45c-12.299 0-23.699 5.099-31.8 13.2S0 168.701 0 181v270c0 12.299 5.099 23.699 13.2 31.8S32.701 496 45 496h392c12.299 0 23.699-5.099 31.8-13.2S482 463.299 482 451V163.299c0-3.898-1.5-7.2-3.6-9.898z" style="" fill="#E5E5E5" data-original="#e5e5e5" class=""></path><path d="M482 163.299V451c0 12.299-5.099 23.699-13.2 31.8S449.299 496 437 496H242V136h138.9l44.099 6.301L469.1 148.3c3.6.601 6.899 2.401 9.3 5.101 2.1 2.698 3.6 6 3.6 9.898z" style="" fill="#C8C6CD" data-original="#c8c6cd"></path><path d="M165 301c0 24.901-20.099 45-45 45s-45-20.099-45-45 20.099-45 45-45 45 20.099 45 45zM180 406v15c0 8.401-6.599 15-15 15H75c-8.401 0-15-6.599-15-15v-11.7c0-29.7 20.4-57.599 49.799-62.399C113.401 346.3 116.7 346 120 346c32.999 0 60 27.001 60 60z" style="" fill="#21AAF7" data-original="#21aaf7"></path><circle cx="347" cy="301" r="15" style="" fill="#8B8892" data-original="#8b8892"></circle><circle cx="407" cy="301" r="15" style="" fill="#8B8892" data-original="#8b8892"></circle><circle cx="287" cy="301" r="15" style="" fill="#8B8892" data-original="#8b8892"></circle><path d="M407 376H287c-8.291 0-15-6.709-15-15s6.709-15 15-15h120c8.291 0 15 6.709 15 15s-6.709 15-15 15zM422 421c0 8.291-6.709 15-15 15H287c-8.291 0-15-6.709-15-15s6.709-15 15-15h120c8.291 0 15 6.709 15 15z" style="" fill="#8B8892" data-original="#8b8892"></path><path d="M392 16c-66.301 0-120 53.699-120 120s53.699 120 120 120 120-53.699 120-120S458.301 16 392 16z" style="" fill="#32D736" data-original="#32d736"></path><path d="M512 136c0 66.301-53.699 120-120 120V16c66.301 0 120 53.699 120 120z" style="" fill="#10BB67" data-original="#10bb67"></path><path d="M165 301c0 24.901-20.099 45-45 45v-90c24.901 0 45 20.099 45 45zM180 406v15c0 8.401-6.599 15-15 15h-45v-90c32.999 0 60 27.001 60 60z" style="" fill="#1689FC" data-original="#1689fc"></path><path d="M447.499 116.499 392 172l-4.501 4.499C384.8 179.5 380.9 181 377 181s-7.8-1.5-10.499-4.501l-30-30c-6-5.7-6-15.298 0-20.999 5.7-6 15.298-6 20.999 0l19.5 19.199 15-15L426.501 95.5c5.7-6 15.298-6 20.999 0 6 5.701 6 15.299-.001 20.999z" style="" fill="#B7E0F6" data-original="#b7e0f6"></path><path d="M447.499 116.499 392 172v-42.301L426.501 95.5c5.7-6 15.298-6 20.999 0 6 5.701 6 15.299-.001 20.999z" style="" fill="#A4D9F5" data-original="#a4d9f5"></path></g></svg>