<svg xmlns="http://www.w3.org/2000/svg" version="1.1" xmlns:xlink="http://www.w3.org/1999/xlink" xmlns:svgjs="http://svgjs.com/svgjs" width="512" height="512" x="0" y="0" viewBox="0 0 510 510" style="enable-background:new 0 0 512 512" xml:space="preserve" class=""><defs><linearGradient id="g" x1="255" x2="255" y1="432.803" y2="512.706" gradientUnits="userSpaceOnUse"><stop offset="0" stop-color="#ff637b"></stop><stop offset="1" stop-color="#e63950"></stop></linearGradient><linearGradient id="h" x1="345.496" x2="277.471" y1="491.949" y2="344.07" gradientUnits="userSpaceOnUse"><stop offset="0" stop-color="#e63950" stop-opacity="0"></stop><stop offset=".047" stop-color="#e4354b" stop-opacity=".047"></stop><stop offset=".467" stop-color="#d31822" stop-opacity=".467"></stop><stop offset=".799" stop-color="#c90709" stop-opacity=".799"></stop><stop offset="1" stop-color="#c50000"></stop></linearGradient><linearGradient xlink:href="#a" id="i" x1="108.364" x2="137.417" y1="234.042" y2="263.096" gradientUnits="userSpaceOnUse"></linearGradient><linearGradient xlink:href="#a" id="j" x1="387.101" x2="416.155" y1="234.042" y2="263.096" gradientUnits="userSpaceOnUse"></linearGradient><linearGradient xlink:href="#a" id="k" x1="186.343" x2="309.565" y1="134.548" y2="329.154" gradientUnits="userSpaceOnUse"></linearGradient><linearGradient xlink:href="#b" id="l" x1="184.041" x2="210.533" y1="213.201" y2="239.693" gradientUnits="userSpaceOnUse"></linearGradient><linearGradient xlink:href="#c" id="m" x1="192.404" x2="220.52" y1="228.694" y2="176.402" gradientUnits="userSpaceOnUse"></linearGradient><linearGradient xlink:href="#b" id="n" x1="310.653" x2="337.145" y1="213.201" y2="239.693" gradientUnits="userSpaceOnUse"></linearGradient><linearGradient xlink:href="#c" id="o" x1="319.017" x2="347.133" y1="228.694" y2="176.402" gradientUnits="userSpaceOnUse"></linearGradient><linearGradient xlink:href="#b" id="p" x1="217.876" x2="328.351" y1="122.605" y2="216.65" gradientUnits="userSpaceOnUse"></linearGradient><linearGradient id="q" x1="190.162" x2="254.747" y1="78.784" y2="188.126" gradientUnits="userSpaceOnUse"><stop offset="0" stop-color="#6e566e" stop-opacity="0"></stop><stop offset=".294" stop-color="#674d66" stop-opacity=".294"></stop><stop offset="1" stop-color="#593b56"></stop></linearGradient><linearGradient xlink:href="#d" id="r" x1="382.202" x2="344.81" y1="312.923" y2="301.875" gradientUnits="userSpaceOnUse"></linearGradient><linearGradient xlink:href="#e" id="s" x1="139.489" x2="128.016" y1="350.682" y2="371.502" gradientUnits="userSpaceOnUse"></linearGradient><linearGradient xlink:href="#e" id="t" x1="118.801" x2="107.329" y1="244.874" y2="259.321" gradientUnits="userSpaceOnUse"></linearGradient><linearGradient xlink:href="#e" id="u" x1="303.1" x2="291.628" y1="350.682" y2="371.502" gradientTransform="matrix(-1 0 0 1 673.612 0)" gradientUnits="userSpaceOnUse"></linearGradient><linearGradient xlink:href="#e" id="v" x1="282.413" x2="270.94" y1="244.874" y2="259.321" gradientTransform="matrix(-1 0 0 1 673.612 0)" gradientUnits="userSpaceOnUse"></linearGradient><linearGradient xlink:href="#d" id="w" x1="255" x2="255" y1="239.924" y2="453.396" gradientUnits="userSpaceOnUse"></linearGradient><linearGradient id="x" x1="232.101" x2="270.236" y1="294.968" y2="363.386" gradientUnits="userSpaceOnUse"><stop offset="0" stop-color="#9ae1d3"></stop><stop offset="1" stop-color="#80d1c1"></stop></linearGradient><linearGradient xlink:href="#f" id="y" x1="255" x2="255" y1="279.971" y2="251.931" gradientUnits="userSpaceOnUse"></linearGradient><linearGradient xlink:href="#e" id="z" x1="255" x2="255" y1="244.64" y2="263.181" gradientUnits="userSpaceOnUse"></linearGradient><linearGradient xlink:href="#f" id="A" x1="255" x2="255" y1="402.62" y2="435.694" gradientUnits="userSpaceOnUse"></linearGradient><linearGradient xlink:href="#f" id="B" x1="255" x2="255" y1="322.71" y2="245.159" gradientUnits="userSpaceOnUse"></linearGradient><linearGradient xlink:href="#f" id="C" x1="255" x2="255" y1="352.641" y2="297.014" gradientUnits="userSpaceOnUse"></linearGradient><linearGradient xlink:href="#f" id="D" x1="255" x2="255" y1="384.939" y2="352.97" gradientUnits="userSpaceOnUse"></linearGradient></defs><g><linearGradient id="g" x1="255" x2="255" y1="432.803" y2="512.706" gradientUnits="userSpaceOnUse"><stop offset="0" stop-color="#ff637b"></stop><stop offset="1" stop-color="#e63950"></stop></linearGradient><linearGradient id="h" x1="345.496" x2="277.471" y1="491.949" y2="344.07" gradientUnits="userSpaceOnUse"><stop offset="0" stop-color="#e63950" stop-opacity="0"></stop><stop offset=".047" stop-color="#e4354b" stop-opacity=".047"></stop><stop offset=".467" stop-color="#d31822" stop-opacity=".467"></stop><stop offset=".799" stop-color="#c90709" stop-opacity=".799"></stop><stop offset="1" stop-color="#c50000"></stop></linearGradient><linearGradient id="a"><stop offset="0" stop-color="#fce9cb"></stop><stop offset="1" stop-color="#ffbd95"></stop></linearGradient><linearGradient xlink:href="#a" id="i" x1="108.364" x2="137.417" y1="234.042" y2="263.096" gradientUnits="userSpaceOnUse"></linearGradient><linearGradient xlink:href="#a" id="j" x1="387.101" x2="416.155" y1="234.042" y2="263.096" gradientUnits="userSpaceOnUse"></linearGradient><linearGradient xlink:href="#a" id="k" x1="186.343" x2="309.565" y1="134.548" y2="329.154" gradientUnits="userSpaceOnUse"></linearGradient><linearGradient id="b"><stop offset="0" stop-color="#8a7889"></stop><stop offset="1" stop-color="#6e566e"></stop></linearGradient><linearGradient xlink:href="#b" id="l" x1="184.041" x2="210.533" y1="213.201" y2="239.693" gradientUnits="userSpaceOnUse"></linearGradient><linearGradient id="c"><stop offset="0" stop-color="#6e566e" stop-opacity="0"></stop><stop offset=".047" stop-color="#6e566e" stop-opacity=".047"></stop><stop offset="1" stop-color="#6e566e"></stop></linearGradient><linearGradient xlink:href="#c" id="m" x1="192.404" x2="220.52" y1="228.694" y2="176.402" gradientUnits="userSpaceOnUse"></linearGradient><linearGradient xlink:href="#b" id="n" x1="310.653" x2="337.145" y1="213.201" y2="239.693" gradientUnits="userSpaceOnUse"></linearGradient><linearGradient xlink:href="#c" id="o" x1="319.017" x2="347.133" y1="228.694" y2="176.402" gradientUnits="userSpaceOnUse"></linearGradient><linearGradient xlink:href="#b" id="p" x1="217.876" x2="328.351" y1="122.605" y2="216.65" gradientUnits="userSpaceOnUse"></linearGradient><linearGradient id="q" x1="190.162" x2="254.747" y1="78.784" y2="188.126" gradientUnits="userSpaceOnUse"><stop offset="0" stop-color="#6e566e" stop-opacity="0"></stop><stop offset=".294" stop-color="#674d66" stop-opacity=".294"></stop><stop offset="1" stop-color="#593b56"></stop></linearGradient><linearGradient id="d"><stop offset="0" stop-color="#faa68e" stop-opacity="0"></stop><stop offset="1" stop-color="#c9766e"></stop></linearGradient><linearGradient xlink:href="#d" id="r" x1="382.202" x2="344.81" y1="312.923" y2="301.875" gradientUnits="userSpaceOnUse"></linearGradient><linearGradient id="e"><stop offset="0" stop-color="#edf5ff"></stop><stop offset="1" stop-color="#d5e8fe"></stop></linearGradient><linearGradient xlink:href="#e" id="s" x1="139.489" x2="128.016" y1="350.682" y2="371.502" gradientUnits="userSpaceOnUse"></linearGradient><linearGradient xlink:href="#e" id="t" x1="118.801" x2="107.329" y1="244.874" y2="259.321" gradientUnits="userSpaceOnUse"></linearGradient><linearGradient xlink:href="#e" id="u" x1="303.1" x2="291.628" y1="350.682" y2="371.502" gradientTransform="matrix(-1 0 0 1 673.612 0)" gradientUnits="userSpaceOnUse"></linearGradient><linearGradient xlink:href="#e" id="v" x1="282.413" x2="270.94" y1="244.874" y2="259.321" gradientTransform="matrix(-1 0 0 1 673.612 0)" gradientUnits="userSpaceOnUse"></linearGradient><linearGradient xlink:href="#d" id="w" x1="255" x2="255" y1="239.924" y2="453.396" gradientUnits="userSpaceOnUse"></linearGradient><linearGradient id="x" x1="232.101" x2="270.236" y1="294.968" y2="363.386" gradientUnits="userSpaceOnUse"><stop offset="0" stop-color="#9ae1d3"></stop><stop offset="1" stop-color="#80d1c1"></stop></linearGradient><linearGradient id="f"><stop offset="0" stop-color="#0b799d" stop-opacity="0"></stop><stop offset=".174" stop-color="#117d9e" stop-opacity=".174"></stop><stop offset=".414" stop-color="#2389a0" stop-opacity=".414"></stop><stop offset=".693" stop-color="#409ca3" stop-opacity=".693"></stop><stop offset=".999" stop-color="#69b7a8" stop-opacity=".999"></stop><stop offset="1" stop-color="#69b7a8"></stop></linearGradient><linearGradient xlink:href="#f" id="y" x1="255" x2="255" y1="279.971" y2="251.931" gradientUnits="userSpaceOnUse"></linearGradient><linearGradient xlink:href="#e" id="z" x1="255" x2="255" y1="244.64" y2="263.181" gradientUnits="userSpaceOnUse"></linearGradient><linearGradient xlink:href="#f" id="A" x1="255" x2="255" y1="402.62" y2="435.694" gradientUnits="userSpaceOnUse"></linearGradient><linearGradient xlink:href="#f" id="B" x1="255" x2="255" y1="322.71" y2="245.159" gradientUnits="userSpaceOnUse"></linearGradient><linearGradient xlink:href="#f" id="C" x1="255" x2="255" y1="352.641" y2="297.014" gradientUnits="userSpaceOnUse"></linearGradient><linearGradient xlink:href="#f" id="D" x1="255" x2="255" y1="384.939" y2="352.97" gradientUnits="userSpaceOnUse"></linearGradient><path fill="url(&quot;#g&quot;)" d="M486.754 463.53c12.805 14.415 3.674 37.25-15.537 38.897C416.187 507.143 343.326 510 263.39 510c-88.483 0-168.293-3.502-224.84-9.136-18.978-1.891-28.082-24.562-15.317-38.732l.288-.32c56.824-63.133 139.197-102.821 230.831-102.821 90.65 0 172.172 38.793 228.952 100.717a320.44 320.44 0 0 1 3.45 3.822z" data-original="url(#g)"></path><path fill="url(&quot;#h&quot;)" d="M486.754 463.53a320.347 320.347 0 0 0-3.45-3.821c-56.779-61.925-138.301-100.717-228.952-100.717-39.844 0-77.936 7.507-112.939 21.179 1.545 6.692 4.441 13.377 6.69 20.051 1.842 5.468 4.366 10.195 9.002 13.677l96.084 96.084c3.389.01 6.786.017 10.201.017 79.935 0 152.797-2.857 207.827-7.573 19.211-1.647 28.341-24.482 15.537-38.897z" data-original="url(#h)"></path><path fill="url(&quot;#i&quot;)" d="M115.631 280.922c-16.863 0-30.534-13.67-30.534-30.534V232.23c0-16.863 13.67-30.534 30.534-30.534 16.863 0 30.534 13.67 30.534 30.534v18.159c0 16.863-13.671 30.533-30.534 30.533z" data-original="url(#i)"></path><path fill="url(&quot;#j&quot;)" d="M394.369 280.922c-16.863 0-30.534-13.67-30.534-30.534V232.23c0-16.863 13.67-30.534 30.534-30.534 16.863 0 30.534 13.67 30.534 30.534v18.159c-.001 16.863-13.671 30.533-30.534 30.533z" data-original="url(#j)"></path><path fill="url(&quot;#k&quot;)" d="M255 428.583c76.292 0 139.053-60.317 141.809-136.559a1357.106 1357.106 0 0 0 0-98.089C394.052 117.693 331.292 57.375 255 57.375c-76.291 0-139.052 60.317-141.808 136.559a1357.106 1357.106 0 0 0 0 98.089c2.756 76.242 65.516 136.56 141.808 136.56z" data-original="url(#k)" class=""></path><path fill="url(&quot;#l&quot;)" d="M212.148 220.855c0 11.297-9.158 20.455-20.455 20.455s-20.454-9.158-20.454-20.455 9.158-20.455 20.454-20.455c11.297 0 20.455 9.158 20.455 20.455z" data-original="url(#l)"></path><path fill="url(&quot;#m&quot;)" d="M200.844 202.557a20.362 20.362 0 0 1 2.157 9.15c0 11.297-9.158 20.455-20.454 20.455-3.289 0-6.397-.778-9.15-2.157 3.358 6.703 10.29 11.305 18.297 11.305 11.297 0 20.455-9.158 20.455-20.455-.001-8.008-4.603-14.94-11.305-18.298z" data-original="url(#m)"></path><path fill="url(&quot;#n&quot;)" d="M338.761 220.855c0 11.297-9.158 20.455-20.455 20.455s-20.454-9.158-20.454-20.455 9.158-20.455 20.454-20.455c11.297 0 20.455 9.158 20.455 20.455z" data-original="url(#n)"></path><path fill="url(&quot;#o&quot;)" d="M327.456 202.557a20.362 20.362 0 0 1 2.157 9.15c0 11.297-9.158 20.455-20.454 20.455-3.289 0-6.397-.778-9.15-2.157 3.358 6.703 10.29 11.305 18.297 11.305 11.297 0 20.455-9.158 20.455-20.455 0-8.008-4.602-14.94-11.305-18.298z" data-original="url(#o)"></path><path fill="url(&quot;#p&quot;)" d="m113.591 241.396 2.627-39.194c1.406-20.975 13.447-40.008 31.509-50.253 8.956-5.08 18.954-7.747 29.001-7.747h76.668c27.857 0 54.309-10.967 73.254-30.201l18.466 29.523c4.423 7.071 10.63 12.967 17.989 17.065 15.074 8.393 25.097 24.212 26.174 41.621l1.728 27.945c.323 5.23 4.68 9.488 9.728 9.488 4.204 0 7.657-2.984 8.368-7.218l12.524-74.636c3.59-21.393 4.48-42.895 2.734-64.029-2.606-31.537-33.582-54.715-64.845-49.244C319.481 8.329 264.684-6.917 211.96 2.93l-45.838 8.561c-41.556 7.761-73.429 43.221-74.706 84.806l-1.362 44.339c-.616 20.064.36 40.409 2.968 60.848l5.302 41.558c.473 3.707 3.413 6.369 7.046 6.369 4.244.001 7.924-3.595 8.221-8.015z" data-original="url(#p)"></path><path fill="url(&quot;#q&quot;)" d="M359.516 44.515C319.481 8.329 264.684-6.917 211.96 2.93l-45.838 8.561c-41.556 7.761-73.429 43.221-74.706 84.806l-1.362 44.339c-.616 20.064.36 40.409 2.968 60.848l5.302 41.558c.473 3.707 3.413 6.369 7.046 6.369 4.243 0 7.924-3.596 8.22-8.015l2.627-39.194c1.406-20.975 13.447-40.008 31.509-50.253 8.956-5.08 18.954-7.747 29.002-7.747h76.668c27.857 0 54.309-10.967 73.254-30.201.001 0-11.759-48.699 32.866-69.486z" data-original="url(#q)" class=""></path><path fill="url(&quot;#r&quot;)" d="M396.808 292.024c.526-14.551.804-29.107.862-43.663-10.903 9.739-24.965 17.76-42.393 19.263 0 0 14.856 52.283 9.343 109.236 19.12-23.191 31.023-52.588 32.188-84.836z" data-original="url(#r)"></path><path fill="url(&quot;#s&quot;)" d="M151.148 381.782h-.063c-11.306-.083-27.39-6.11-39.811-34.351a8.499 8.499 0 0 1 15.558-6.842c4.835 10.993 12.989 24.114 24.378 24.198a8.497 8.497 0 0 1 8.435 8.56 8.5 8.5 0 0 1-8.497 8.435z" data-original="url(#s)"></path><path fill="url(&quot;#t&quot;)" d="M158.56 272.92h-.034c-23.805-.093-44.906-9.901-61.022-28.367-11.969-13.714-16.985-27.44-17.193-28.018a8.498 8.498 0 0 1 5.122-10.872c4.407-1.586 9.267.697 10.864 5.099.042.116 4.355 11.714 14.385 23.039 12.935 14.606 29.055 22.049 47.91 22.122a8.498 8.498 0 0 1 8.465 8.531 8.498 8.498 0 0 1-8.497 8.466z" data-original="url(#t)"></path><path fill="url(&quot;#u&quot;)" d="M358.852 381.782h.064c11.306-.083 27.39-6.11 39.811-34.351a8.499 8.499 0 0 0-15.558-6.842c-4.835 10.993-12.989 24.114-24.378 24.198a8.498 8.498 0 0 0 .061 16.995z" data-original="url(#u)"></path><path fill="url(&quot;#v&quot;)" d="M351.44 272.92h.034c23.805-.093 44.906-9.901 61.022-28.367 11.969-13.714 16.985-27.44 17.193-28.018a8.498 8.498 0 0 0-5.122-10.872c-4.407-1.586-9.267.697-10.864 5.099-.042.116-4.355 11.714-14.385 23.039-12.935 14.606-29.055 22.049-47.91 22.122a8.498 8.498 0 0 0-8.465 8.531 8.498 8.498 0 0 0 8.497 8.466z" data-original="url(#v)"></path><path fill="url(&quot;#w&quot;)" d="M263.749 332.009H246.25c-14.023 0-24.949-12.164-23.449-26.106l9.149-85.048h46.098l9.149 85.048c1.501 13.942-9.424 26.106-23.448 26.106z" data-original="url(#w)"></path><path fill="url(&quot;#x&quot;)" d="M362.898 271.881c-3.245-9.631-11.697-16.974-22.278-19.238-56.862-12.166-114.38-12.166-171.241 0-10.581 2.264-19.033 9.607-22.278 19.238-14.365 42.633-14.363 85.712 0 128.34 3.245 9.631 11.697 16.974 22.278 19.238 56.861 12.166 114.378 12.166 171.241 0 10.581-2.264 19.033-9.607 22.278-19.237 14.363-42.63 14.365-85.708 0-128.341z" data-original="url(#x)"></path><path fill="url(&quot;#y&quot;)" d="M362.898 271.881c-3.245-9.631-11.697-16.974-22.278-19.238-56.862-12.166-114.38-12.166-171.241 0-10.581 2.264-19.033 9.607-22.278 19.238-14.365 42.633-14.363 85.712 0 128.34 3.245 9.631 11.697 16.974 22.278 19.238 56.861 12.166 114.378 12.166 171.241 0 10.581-2.264 19.033-9.607 22.278-19.237 14.363-42.63 14.365-85.708 0-128.341z" data-original="url(#y)"></path><path fill="url(&quot;#z&quot;)" d="M152.053 273.051c68.368-14.628 137.526-14.628 205.895 0 1.732.371 3.417.856 5.044 1.445 1.439.521 2.85-.848 2.362-2.299l-.013-.039c-3.319-9.849-11.962-17.358-22.782-19.673-58.149-12.441-116.969-12.441-175.117 0-10.82 2.315-19.463 9.824-22.782 19.673l-.013.039c-.488 1.451.923 2.82 2.362 2.299a38.478 38.478 0 0 1 5.044-1.445z" data-original="url(#z)"></path><path fill="url(&quot;#A&quot;)" d="M141.958 382.432a212.93 212.93 0 0 0 5.144 17.789c3.245 9.631 11.697 16.974 22.278 19.238 56.861 12.166 114.378 12.166 171.241 0 10.581-2.264 19.033-9.607 22.278-19.237a212.82 212.82 0 0 0 5.144-17.789H141.958z" data-original="url(#A)"></path><path fill="url(&quot;#B&quot;)" d="M340.62 419.458c10.581-2.264 19.033-9.607 22.278-19.237 11.237-33.35 13.682-66.974 7.337-100.445-76.549-15.826-153.922-15.826-230.471 0-6.345 33.471-3.899 67.096 7.337 100.445 3.245 9.631 11.697 16.974 22.278 19.238 56.862 12.165 114.379 12.165 171.241-.001z" data-original="url(#B)"></path><path fill="url(&quot;#C&quot;)" d="M340.62 419.458c10.581-2.264 19.033-9.607 22.278-19.237 6.712-19.921 10.285-39.939 10.723-59.965-78.782-16.774-158.463-16.773-237.243 0 .439 20.026 4.012 40.044 10.724 59.965 3.245 9.631 11.697 16.974 22.278 19.238 56.861 12.165 114.378 12.165 171.24-.001z" data-original="url(#C)"></path><path fill="url(&quot;#D&quot;)" d="M340.62 419.458c10.581-2.264 19.033-9.607 22.278-19.237a212.755 212.755 0 0 0 5.246-18.189c-75.17-15.255-151.119-15.255-226.288 0a212.86 212.86 0 0 0 5.246 18.189c3.245 9.631 11.697 16.974 22.278 19.238 56.861 12.165 114.378 12.165 171.24-.001z" data-original="url(#D)"></path></g></svg>