<svg xmlns="http://www.w3.org/2000/svg" version="1.1" xmlns:xlink="http://www.w3.org/1999/xlink" xmlns:svgjs="http://svgjs.com/svgjs" width="512" height="512" x="0" y="0" viewBox="0 0 511.999 511.999" style="enable-background:new 0 0 512 512" xml:space="preserve"><g><path d="m438.345 477.74-4.855-24.376a7.496 7.496 0 0 0-8.818-5.891 7.5 7.5 0 0 0-5.892 8.818l4.855 24.377c1.684 8.46-4.792 16.333-13.405 16.333h-43.815v-34.058a7.498 7.498 0 0 0-7.499-7.499 7.498 7.498 0 0 0-7.499 7.499V497H222.153a7.498 7.498 0 0 0-7.499 7.499 7.498 7.498 0 0 0 7.499 7.499H410.23c18.095.002 31.642-16.543 28.115-34.258z" fill="#000000" data-original="#000000"></path><path d="m426.651 419.006-2.556-12.828c-4.972-24.908-23.101-35.113-33.466-38.98-3.882-1.441-10.466-2.92-86.766-21.829v-5.208h81.19c8.386 0 15.209-6.822 15.209-15.209v-97.657c5.03-6.993 7.887-15.521 7.887-24.569 0-9.048-2.858-17.576-7.888-24.57v-34.298c0-38.513-15.08-74.716-42.463-101.941C306.344-9.244 225.791-14.014 169.051 30.04a7.499 7.499 0 0 0-1.324 10.522 7.496 7.496 0 0 0 10.522 1.324C228.896 2.564 301.094 6.688 347.222 52.552c24.53 24.39 38.039 56.816 38.039 91.305v18.715a21.17 21.17 0 0 0-12.187-12.181v-6.534c0-64.308-52.319-116.627-116.628-116.627S139.818 79.549 139.818 143.857v6.534a21.176 21.176 0 0 0-12.188 12.183v-17.218c0-29.233 9.424-56.905 27.254-80.025a7.5 7.5 0 0 0-11.878-9.16c-19.871 25.769-30.375 56.608-30.375 89.184v32.798c-5.03 6.993-7.888 15.522-7.888 24.57 0 9.049 2.858 17.577 7.888 24.571v94.488c0 10.133 8.243 18.378 18.377 18.378h77.404v5.143c-6.31 1.56-78.189 19.375-86.268 21.727l.009.03c-.167.061-.329.126-.486.192l-.021-.057c-10.364 3.867-28.495 14.072-33.467 38.983-6.002 30.139-10.207 51.128-14.539 72.762-3.425 17.117 9.675 33.056 27.098 33.056h86.418a7.498 7.498 0 0 0 7.499-7.499 7.498 7.498 0 0 0-7.499-7.499h-26.311V462.94a7.498 7.498 0 0 0-7.499-7.499 7.498 7.498 0 0 0-7.499 7.499v34.058H100.74c-7.98 0-13.954-7.301-12.39-15.114 5.342-26.686 9.183-45.868 14.54-72.773 4.947-24.778 27.886-28.777 29.185-29.373l46.06-11.415 20.797 24.548.002.002 27.087 31.973c7.795 9.206 18.34 14.991 30.06 15.005h.043c11.177 0 21.837-5.293 30.023-14.907l48.168-56.575 46.047 11.411.003-.008c.571.198.74.23 5.259 1.568 7.476 2.841 20.253 10.184 23.764 27.771l2.555 12.824a7.501 7.501 0 0 0 8.819 5.891 7.5 7.5 0 0 0 5.889-8.82zM204.4 299.829h22.513c3.033 7.933 10.703 13.593 19.69 13.593h19.051c11.631 0 21.093-9.462 21.093-21.092 0-11.631-9.462-21.093-21.093-21.093h-19.051c-8.987 0-16.658 5.66-19.69 13.594h-24.487c-5.309 0-10.457-.706-15.294-2.035-12.015-15.612-18.721-34.986-18.721-54.856v-17.88a5.26 5.26 0 0 1 1.671-3.866 5.183 5.183 0 0 1 3.904-1.42c3.526.213 6.972.315 10.362.315 68.267-.006 108.914-41.655 125.117-62.776 8.492 15.191 21.061 19.896 30.359 21.119 2.462.323 4.318 2.425 4.318 4.89v60.974c0 72.124-82.739 113.259-139.742 70.533zm36.111-7.499a6.101 6.101 0 0 1 6.094-6.094h19.051a6.102 6.102 0 0 1 6.095 6.094 6.101 6.101 0 0 1-6.095 6.094h-19.051a6.101 6.101 0 0 1-6.094-6.094zm146.156-107.195c.152.212.315.414.487.609a26.977 26.977 0 0 1 5.995 16.981 26.975 26.975 0 0 1-6 16.988 7.357 7.357 0 0 0-.482.603v-35.181zm-1.405 57.742v82.076a.21.21 0 0 1-.21.21h-81.19v-4.588c25.838-13.454 45.117-37.529 52.257-66.377a20.937 20.937 0 0 0 9.454 2.264c8.985 0 16.654-5.656 19.689-13.585zm-25.783-72.795a6.102 6.102 0 0 1 6.095-6.095 6.101 6.101 0 0 1 6.094 6.095v65.289a6.101 6.101 0 0 1-6.094 6.094 6.101 6.101 0 0 1-6.095-6.094v-65.289zM256.446 42.229c56.039 0 101.629 45.59 101.629 101.628v6.534a21.062 21.062 0 0 0-5.554 3.154c-2.918-2.633-6.612-4.44-10.743-4.983-9.002-1.185-15.823-6.427-20.27-15.581-4.292-8.837-16.444-9.955-22.259-2.039-13.401 18.239-50.659 59.146-114.992 59.144-3.061 0-6.185-.092-9.368-.284a20.114 20.114 0 0 0-6.476.683v-20.404c0-8.987-5.66-16.659-13.594-19.691v-6.533h-.001c-.001-56.038 45.59-101.628 101.628-101.628zm-97.569 218.972a35.961 35.961 0 0 1-2.702-6.713c.205-.095.409-.193.61-.294a105.35 105.35 0 0 0 2.092 7.007zm-17.653-26.476v-64.643a6.102 6.102 0 0 1 6.095-6.095 6.101 6.101 0 0 1 6.094 6.095v65.289a6.1 6.1 0 0 1-6.094 6.094 6.101 6.101 0 0 1-6.095-6.094v-.646zm-14.999-14.409a7.55 7.55 0 0 0-.487-.609c-3.796-4.705-5.996-10.638-5.996-16.982s2.2-12.276 5.996-16.981c.173-.195.336-.397.487-.609v35.181zm4.783 104.847a3.383 3.383 0 0 1-3.378-3.379v-78.907c2.286 5.973 7.194 10.655 13.326 12.6 2.012 9.228 6.643 17.826 13.547 25.066 6.426 6.741 14.61 11.89 23.79 15.169a103.578 103.578 0 0 0 7.552 8.027c6.88 6.566 14.466 12.055 22.566 16.409v5.015h-77.403zm160.482 70.366-16.765 19.69c-5.289 6.213-11.894 9.632-18.603 9.632h-.023c-6.726-.008-13.344-3.452-18.635-9.697l-16.627-19.625h70.653zm12.769-14.999h-96.13l-13.749-16.231 23.338-5.784c3.347-.83 5.696-3.909 5.696-7.355l-.002-.172.001-24.284c10.474 3.593 21.542 5.457 32.876 5.457 10.787 0 21.878-1.694 32.574-5.245v24.148l-.002.172a7.498 7.498 0 0 0 5.696 7.279l23.489 5.822-13.787 16.193z" fill="#000000" data-original="#000000"></path></g></svg>