<svg xmlns="http://www.w3.org/2000/svg" version="1.1" xmlns:xlink="http://www.w3.org/1999/xlink" xmlns:svgjs="http://svgjs.com/svgjs" width="512" height="512" x="0" y="0" viewBox="0 0 32 32" style="enable-background:new 0 0 512 512" xml:space="preserve" class=""><g><path d="M14.874 19.242a.996.996 0 0 0 .754-.343l8.607-9.864A1 1 0 1 0 22.73 7.72l-8.607 9.864a1 1 0 0 0 .753 1.658z" fill="#FFFEFE" data-original="#000000" class=""></path><path d="M30.788 6.758a1 1 0 0 0-1.411.096L15.305 22.981l-6.802-7.55a1 1 0 1 0-1.486 1.338l3.969 4.406-1.573 1.805-6.8-7.549a1 1 0 1 0-1.486 1.34l7.556 8.386c.19.21.46.33.743.33h.008a1 1 0 0 0 .746-.342l2.154-2.473 2.24 2.486c.19.21.46.33.743.33h.007a1 1 0 0 0 .746-.342L30.884 8.17a1 1 0 0 0-.096-1.411z" fill="#FFFEFE" data-original="#000000" class=""></path></g></svg>