<svg xmlns="http://www.w3.org/2000/svg" version="1.1" xmlns:xlink="http://www.w3.org/1999/xlink" xmlns:svgjs="http://svgjs.com/svgjs" width="512" height="512" x="0" y="0" viewBox="0 0 512 512" style="enable-background:new 0 0 512 512" xml:space="preserve" class=""><g><g fill-rule="evenodd" clip-rule="evenodd"><path fill="#EFF4F7" d="M331.149 445.254H39.812c-11.345 0-20.598-9.253-20.598-20.598V123.832c0-5.673 2.022-10.554 6.033-14.565l94.734-94.736c4.011-4.011 8.893-6.033 14.566-6.033H331.15c11.345 0 20.598 9.253 20.598 20.598v395.559c0 11.346-9.253 20.599-20.599 20.599z" data-original="#eff4f7" class=""></path><path fill="#E2E3E3" d="m119.981 14.531-94.734 94.736c-1.832 1.832-3.249 3.845-4.248 6.033h86.417c10.242 0 18.598-8.354 18.598-18.599V10.284c-2.187.999-4.201 2.416-6.033 4.247z" data-original="#e2e3e3"></path><path fill="#455A64" d="m387.709 415.638-29.41-29.409 14.242-20.188 29.887 29.887z" data-original="#455a64"></path><path fill="#004960" d="m406.543 390.031-27.228 27.228a3.808 3.808 0 0 0 .001 5.37l74.15 74.15c8.963 8.964 23.632 8.965 32.597 0 8.964-8.964 8.964-23.633 0-32.597l-74.15-74.149a3.807 3.807 0 0 0-5.37-.002z" data-original="#004960"></path><path fill="#00242F" d="m406.543 390.031-27.228 27.227a3.804 3.804 0 0 0 0 5.37l18.49 18.49 32.597-32.597-18.49-18.49a3.803 3.803 0 0 0-5.369 0z" data-original="#00242f"></path><ellipse cx="294.368" cy="305.082" fill="#004960" rx="109.161" ry="109.162" transform="rotate(-74.45 294.457 305.2)" data-original="#004960"></ellipse><circle cx="294.546" cy="305.261" r="81.335" fill="#4294FF" transform="rotate(-45 294.514 305.337)" data-original="#4294ff"></circle><path fill="#EB3B48" d="M375.882 305.261c0 14.719-3.91 28.523-10.748 40.433l-70.587-40.433v-81.335c44.92 0 81.335 36.415 81.335 81.335z" data-original="#eb3b48"></path><path fill="#FFE600" d="m294.547 305.261 70.587 40.433c6.838-11.909 10.748-25.714 10.748-40.433 0-14.818-3.962-28.709-10.885-40.674l-70.45 40.674z" data-original="#ffe600"></path><path d="m130.271 331.366-38 38.35-18.62-18.151a7.997 7.997 0 0 0-11.319.14c-3.08 3.16-3.023 8.23.151 11.31l24.309 23.7a7.978 7.978 0 0 0 5.58 2.27c2.061 0 4.117-.79 5.678-2.369l43.594-43.99a7.996 7.996 0 0 0-.061-11.311c-3.144-3.109-8.204-3.089-11.312.051zm0-87.971-38 38.351-18.62-18.16a8.006 8.006 0 0 0-11.319.14c-3.08 3.171-3.023 8.23.151 11.32l24.309 23.69a7.948 7.948 0 0 0 5.58 2.279c2.061 0 4.117-.8 5.678-2.369l43.594-43.99c3.108-3.139 3.08-8.209-.061-11.32a7.997 7.997 0 0 0-11.312.059zm0-87.98-38 38.35-18.62-18.16a8.006 8.006 0 0 0-11.319.149c-3.08 3.161-3.023 8.23.151 11.31l24.309 23.7a7.978 7.978 0 0 0 5.58 2.27 7.95 7.95 0 0 0 5.678-2.369l43.594-43.99c3.108-3.139 3.08-8.209-.061-11.319-3.144-3.101-8.204-3.08-11.312.059zm172.267 76.95v59.04l51.088-29.5c-11.866-16.139-30.166-27.25-51.088-29.54zm51.239 116.05c-13.348 18.27-34.925 30.181-59.238 30.181-40.439 0-73.34-32.901-73.34-73.341 0-37.729 28.647-68.889 65.341-72.88v72.88a7.98 7.98 0 0 0 4.018 6.94zm7.872-72.67a72.903 72.903 0 0 1 6.221 29.511c0 10.41-2.193 20.31-6.122 29.281l-51.169-29.301zm-67.11-59.82c49.258 0 89.329 40.069 89.329 89.33 0 49.259-40.071 89.34-89.329 89.34s-89.339-40.08-89.339-89.34 40.081-89.33 89.339-89.33zm185.841 253.84-50.093-50.099-21.337 21.34 50.089 50.099c5.891 5.881 15.46 5.881 21.342 0 5.886-5.879 5.886-15.459-.001-21.34zm-92.46-49.789 21.342-21.34 9.706 9.72-21.337 21.34zm-4.222-18.411 7.15-7.15-9.89-9.879a114.67 114.67 0 0 1-7.141 7.15zm-39.957 10.21v12.879c0 6.94-5.65 12.6-12.602 12.6H39.8c-6.943 0-12.593-5.66-12.593-12.6V123.826c0-.18.009-.35.024-.531h80.179c14.659 0 26.601-11.929 26.601-26.6V16.516c.17 0 .349-.019.528-.019h196.6c6.952 0 12.602 5.646 12.602 12.598v169.65c-14.97-6.94-31.643-10.83-49.202-10.83-16.059 0-31.378 3.25-45.339 9.12h-78.562c-4.419 0-7.999 3.58-7.999 8s3.58 7.999 7.999 7.999h51.433a118.074 118.074 0 0 0-25.681 27.991h-25.752a7.997 7.997 0 0 0-7.999 7.999c0 4.41 3.58 7.999 7.999 7.999h16.932a116.7 116.7 0 0 0-8.622 27.98h-8.31c-4.419 0-7.999 3.591-7.999 8.001 0 4.42 3.58 7.999 7.999 7.999h6.641a117.595 117.595 0 0 0 2.33 27.991h-8.971c-4.419 0-7.999 3.58-7.999 7.999s3.58 8 7.999 8h13.489a117.255 117.255 0 0 0 14.64 27.991h-28.129c-4.419 0-7.999 3.58-7.999 8s3.58 7.999 7.999 7.999h41.783c21.176 20.78 50.168 33.61 82.118 33.61 17.559.002 34.232-3.878 49.202-10.818zM38.517 107.295h68.893c5.839 0 10.598-4.75 10.598-10.599V27.807zm256.022 96.62c55.88 0 101.342 45.46 101.342 101.341s-45.462 101.341-101.342 101.341-101.337-45.46-101.337-101.341 45.457-101.341 101.337-101.341zm197.161 298.5c-6.061 6.059-14.032 9.09-21.993 9.09-7.956 0-15.918-3.031-21.978-9.09l-76.779-76.78a7.983 7.983 0 0 1 0-11.311l1.439-1.439-11.15-11.15c-.5.35-1 .689-1.5 1.03v21.889c0 15.771-12.829 28.601-28.6 28.601H39.8c-15.772 0-28.591-12.83-28.591-28.601V123.826c0-7.75 2.891-14.74 8.372-20.22L114.32 8.875c5.48-5.48 12.47-8.381 20.219-8.381h196.6c15.772 0 28.6 12.828 28.6 28.601v178.65c31.421 21.08 52.14 56.92 52.14 97.51 0 24.76-7.721 47.75-20.861 66.71l11.14 11.14 1.439-1.441c3.122-3.121 8.192-3.121 11.31 0l76.793 76.79c12.121 12.122 12.121 31.842 0 43.961zM170.638 81.065h132.008a7.998 7.998 0 0 0 8.004-8c0-4.41-3.58-7.999-8.004-7.999H170.638c-4.419 0-7.999 3.589-7.999 7.999 0 4.42 3.58 8 7.999 8zm0 43.99h132.008a7.998 7.998 0 0 0 8.004-7.999c0-4.42-3.58-8-8.004-8H170.638a7.998 7.998 0 0 0-7.999 8 7.997 7.997 0 0 0 7.999 7.999zm-7.999 35.99c0 4.42 3.58 8 7.999 8h132.008a7.998 7.998 0 0 0 8.004-8c0-4.42-3.58-7.999-8.004-7.999H170.638a7.997 7.997 0 0 0-7.999 7.999z" fill="#000000" data-original="#000000" class=""></path></g></g></svg>